<?xml version="1.0" encoding="UTF-8" standalone="no"?>
<!-- Created with Inkscape (http://www.inkscape.org/) -->

<svg
   width="210mm"
   height="297mm"
   viewBox="0 0 210 297"
   version="1.1"
   id="svg25460"
   inkscape:version="1.1.1 (3bf5ae0d25, 2021-09-20)"
   sodipodi:docname="stone.svg"
   xmlns:inkscape="http://www.inkscape.org/namespaces/inkscape"
   xmlns:sodipodi="http://sodipodi.sourceforge.net/DTD/sodipodi-0.dtd"
   xmlns="http://www.w3.org/2000/svg"
   xmlns:svg="http://www.w3.org/2000/svg">
  <sodipodi:namedview
     id="namedview25462"
     pagecolor="#ffffff"
     bordercolor="#666666"
     borderopacity="1.0"
     inkscape:pageshadow="2"
     inkscape:pageopacity="0.0"
     inkscape:pagecheckerboard="0"
     inkscape:document-units="mm"
     showgrid="false"
     inkscape:zoom="2.0460067"
     inkscape:cx="259.28556"
     inkscape:cy="605.81424"
     inkscape:window-width="3200"
     inkscape:window-height="1721"
     inkscape:window-x="-9"
     inkscape:window-y="-9"
     inkscape:window-maximized="1"
     inkscape:current-layer="layer1" />
  <defs
     id="defs25457" />
  <g
     inkscape:label="Layer 1"
     inkscape:groupmode="layer"
     id="layer1">
    <rect
       style="fill:#e9ddaf;stroke-width:0.264583"
       id="rect25486"
       width="150"
       height="150"
       x="28.163794"
       y="71.872536"
       inkscape:export-filename="C:\Code\heavensworld\public\svg\stone.png"
       inkscape:export-xdpi="96"
       inkscape:export-ydpi="96" />
    <path
       style="fill:#d35f5f;stroke:#000000;stroke-width:0.264583px;stroke-linecap:butt;stroke-linejoin:miter;stroke-opacity:1"
       d="m 91.664379,194.55952 -6.350032,2.31271 7.040949,18.37961 25.146244,0.27433 4.57204,-18.37962 -6.48556,-2.13442 z"
       id="path42870"
       inkscape:export-filename="C:\Code\heavensworld\public\svg\stone.png"
       inkscape:export-xdpi="96"
       inkscape:export-ydpi="96" />
    <path
       style="fill:#aa0000;stroke:none;stroke-width:0.264583px;stroke-linecap:butt;stroke-linejoin:miter;stroke-opacity:1"
       d="m 85.314347,196.87223 8.869765,4.93781 22.128698,0.0914 5.76077,-4.75493 -6.48556,-2.13442 -23.923641,-0.45261 -6.350032,2.31271"
       id="path43147"
       inkscape:export-filename="C:\Code\heavensworld\public\svg\stone.png"
       inkscape:export-xdpi="96"
       inkscape:export-ydpi="96" />
    <path
       style="fill:#b3b3b3;fill-opacity:1;stroke:#000000;stroke-width:0.264583px;stroke-linecap:butt;stroke-linejoin:miter;stroke-opacity:1"
       d="m 65.41304,132.48739 c -2.18841,0.44199 -1.75078,-2.34808 -1.81043,-4.5261 -0.8998,-0.41496 -1.42494,-0.10924 -1.35784,-2.78032 0.098,-3.39338 1.04611,-4.555 2.52169,-4.33211 5.2527,-2.52276 -0.40212,-0.55374 3.10361,-5.68995 3.61222,-0.50003 2.81922,-1.979 3.62087,-3.10361 -0.59553,-0.75473 -1.97551,-0.28923 -1.16385,-3.23292 l 1.03453,-3.23292 c 0.7759,-2.58634 -1.07024,-8.39982 2.32771,-7.75902 2.08654,3.59785 2.18054,-1.07546 3.87951,0.7759 0.69714,1.1358 1.98006,1.18593 3.55621,0.38795 0.11903,-2.11152 1.75783,-2.13203 1.22851,-5.172674 -0.11641,-3.071787 3.21912,-4.359643 4.65541,-4.138144 1.20108,1.347029 -1.02521,3.851176 1.16386,4.138144 -0.0529,-0.211446 4.39315,-0.879042 4.39677,-1.939756 0.0127,-3.713009 2.32784,-13.080911 2.97429,-12.931693 2.26842,0.132033 4.83118,-0.177443 6.46585,0.905219 0.23912,1.441088 -0.34717,4.074451 1.29317,3.491556 1.43575,2.811873 3.34802,2.491245 3.87951,3.879508 2.39436,1.431756 7.34883,1.837182 10.47467,3.620876 -0.0428,0.572455 3.70872,1.515355 4.52609,4.008824 l -1.03453,1.81044 c 1.59697,-0.56326 2.75669,-0.51438 3.49155,0.12931 l 2.97429,-0.51726 1.81044,4.26746 c 2.45059,0.89234 0.60686,-1.81032 4.65541,-2.71566 0.99286,0.38723 2.6439,0.44538 2.71566,1.29317 -0.0914,2.51217 0.82476,5.47219 -0.64659,7.37107 -1.42252,2.41376 -3.53173,2.08079 -5.43131,2.58633 l -4.78473,1.93976 c 0.30055,1.49393 0.44023,2.93424 -1.29317,3.75019 -1.6984,0.6724 -3.11123,1.63039 -3.1036,4.00882 2.09246,2.1728 3.97835,0.15777 5.30199,3.23293 -0.53471,2.14128 -2.01019,3.21318 -3.23292,6.46585 l 1.5518,2.45702 c -0.17223,3.34074 0.901,7.03734 -0.51726,10.02207 l -2.19839,2.90963 c 1.60015,1.33627 1.05277,2.67255 1.5518,4.00882 -2.42784,2.44481 -2.59436,1.27153 -3.4269,1.16386 -0.0798,1.59491 -1.11142,3.18981 0.19397,4.78472 0.97078,2.82405 3.68166,6.86617 2.90964,8.47026 l -3.68554,4.07349 -3.75019,0.90521 c 0.7727,-1.35224 3.24122,-2.81046 1.55181,-4.00882 -0.8454,-0.10817 -1.7693,-0.92292 -2.45703,0.38795 l -0.38795,3.62087 c -1.33627,-0.71176 -2.67255,-2.01795 -4.00882,-1.29317 l -1.29317,2.06908 c 2.74268,0.7443 3.14533,0.0261 4.65541,0 0.54885,0.84794 -2.59164,2.37074 -2.58634,4.00882 -1.12703,4.22435 -0.0971,8.44871 0,12.67306 l -3.10361,4.26746 c 1.74188,0.31088 0.72407,0.83885 4.78473,0.84056 l 0.38795,2.78031 c 1.07764,1.01299 -0.63717,-0.86954 1.81044,2.39237 l -1.68112,2.39236 H 94.89731 l -3.23293,-2.84497 c -0.0638,-1.56215 -1.75899,-3.94 0.64659,-4.26746 l 2.97429,-1.16385 0.51727,-4.5261 c -2.3874,-1.81885 -3.98766,-3.39551 -4.13815,-4.52609 0.41738,-0.71693 0.71781,-1.46576 2.97429,-1.68112 l -2.90963,-0.7759 c 0.61384,-2.77791 -1.179,-4.11181 -2.13373,-5.94858 -1.86038,-0.45159 -3.04377,0.0286 -4.59074,0.51727 l -6.53052,-2.71566 0.12932,-3.1036 2.58634,-2.97429 c 2.11218,0.0853 4.6123,-2.35677 6.72448,-3.87952 0.88242,0.0659 -0.90213,2.79879 -1.5518,4.39678 1.93975,-1.68112 5.39505,-2.03614 5.81926,-5.04336 l 1.29317,-2.84497 c 1.86561,-0.66179 3.391,-1.44729 8.92287,-0.7759 l 0.12932,2.45702 -5.17268,2.32771 c -1.90502,1.33627 -2.53387,2.67255 -2.19839,4.00882 0.68895,1.94785 1.60956,1.34752 2.45702,1.5518 l 3.62088,-5.04336 c 1.21538,0.21346 2.34893,0.27961 2.71565,-1.03453 -0.70565,-3.15359 0.99837,-1.82902 2.71566,-7.37107 l 3.75019,-3.75019 c -1.80875,-1.36247 -4.18551,1.08374 -5.04336,-0.25863 l 2.58634,-7.75902 0.25863,-6.59516 c -3.42934,-0.93268 -5.78622,-2.26047 -5.94858,-4.39678 0.96377,-2.30373 0.32349,-2.10094 1.42249,-10.21604 l 1.68112,-2.19839 -2.19839,-1.68112 c 0.0514,-1.62423 -0.3997,-2.11807 -1.03453,-2.19839 l -0.64659,2.3277 -1.29317,2.19839 c -0.42291,-1.65159 -1.0109,-3.02805 -2.45702,-2.97429 -0.26322,2.71933 -0.20189,5.56036 0.90522,8.79355 -1.97217,-0.18942 -1.73523,1.1991 -2.58634,1.81044 l -3.10361,-1.16385 c -1.01334,1.37866 -3.86329,-0.91589 -5.81926,-1.42249 h -5.04336 l -1.93975,2.97429 -2.71566,0.25864 c -0.39182,-1.59929 -0.65447,-3.34065 -2.71566,-3.10361 -2.21549,0.52963 -1.78574,2.00399 -1.68112,3.36224 l -3.75019,2.32771 c -1.756,0.98083 -1.33485,2.68739 -1.68112,4.13814 z"
       id="path26132"
       sodipodi:nodetypes="ccccccccccccccscccccccccccccccccccccccccccccccccccccccccccccccccccccccccccccccccccccccccccccccccccccccccc"
       inkscape:export-filename="C:\Code\heavensworld\public\svg\stone.png"
       inkscape:export-xdpi="96"
       inkscape:export-ydpi="96" />
    <path
       style="fill:#666666;fill-opacity:1;stroke:none;stroke-width:0.264583px;stroke-linecap:butt;stroke-linejoin:miter;stroke-opacity:1"
       d="m 68.71063,128.8665 c 0.0894,-1.94592 -0.31991,-3.7672 0.71124,-5.94857 2.3455,-0.25335 5.61562,-0.84293 5.30199,-0.12932 -0.0968,-0.51598 -1.76438,-0.44294 2.651,-2.651 5.87644,2.07001 3.14671,1.68112 4.72007,2.52168 l -1.93975,2.97429 -2.71566,0.25863 c -0.52872,-1.21629 0.0968,-2.98982 -2.71566,-3.1036 -0.74449,0.74228 -2.33496,-0.25439 -1.68112,3.36224 z"
       id="path33689"
       sodipodi:nodetypes="cccccccccc"
       inkscape:export-filename="C:\Code\heavensworld\public\svg\stone.png"
       inkscape:export-xdpi="96"
       inkscape:export-ydpi="96" />
    <path
       style="fill:#666666;fill-opacity:1;stroke:none;stroke-width:0.264583px;stroke-linecap:butt;stroke-linejoin:miter;stroke-opacity:1"
       d="m 92.95755,124.08178 c 0.84056,-3.87951 0.84441,-6.29478 2.52169,-11.63853 2.90934,-3.98857 4.1935,-4.79747 5.14034,-4.94637 -2.14575,3.88051 -2.26997,5.20751 -2.8773,7.14476 -0.34009,4.34321 0.44702,6.20658 0.90522,8.79355 -1.57517,-0.43369 -1.88448,0.97387 -2.58634,1.81044 l -3.10361,-1.16385"
       id="path34733"
       sodipodi:nodetypes="ccccccc"
       inkscape:export-filename="C:\Code\heavensworld\public\svg\stone.png"
       inkscape:export-xdpi="96"
       inkscape:export-ydpi="96" />
    <path
       style="fill:#666666;stroke:none;stroke-width:0.264583px;stroke-linecap:butt;stroke-linejoin:miter;stroke-opacity:1"
       d="m 84.4873,113.41313 c -1.75508,-0.19075 -3.05362,-1.3859 -4.20281,-2.90963 1.22848,-2.37081 0.52541,-4.61285 3.68554,-7.11243 2.70657,-0.057 0.0978,-0.76688 4.84938,-6.78914 0.76013,0.42528 1.69122,0.67959 3.29759,0.25863 -3.92792,5.30547 -3.87931,4.19549 -5.302,5.94858 -1.08889,2.64041 -2.82064,3.44407 -2.3277,10.60399 z"
       id="path35703"
       sodipodi:nodetypes="ccccccc"
       inkscape:export-filename="C:\Code\heavensworld\public\svg\stone.png"
       inkscape:export-xdpi="96"
       inkscape:export-ydpi="96" />
    <path
       style="fill:#666666;stroke:none;stroke-width:0.264583px;stroke-linecap:butt;stroke-linejoin:miter;stroke-opacity:1"
       d="m 110.41487,100.17349 c -0.37937,0.55975 -0.97811,0.85625 -1.96598,0.68581 -1.16584,-1.56025 -2.21298,-3.26887 -3.84051,-4.252 0.30931,-0.88967 0.55516,-1.805788 2.28602,-2.103145 1.39201,-0.02408 2.65223,0.177756 3.20043,1.600215 0.0482,1.29795 0.14991,2.6493 0.32004,4.06912 z"
       id="path36175"
       sodipodi:nodetypes="cccccc"
       inkscape:export-filename="C:\Code\heavensworld\public\svg\stone.png"
       inkscape:export-xdpi="96"
       inkscape:export-ydpi="96" />
    <path
       style="fill:none;stroke:#000000;stroke-width:0.264583px;stroke-linecap:butt;stroke-linejoin:miter;stroke-opacity:1"
       d="m 113.75246,89.337745 c 0.0762,0.121923 0.15241,0.243843 0.22861,0.365765"
       id="path37141"
       inkscape:export-filename="C:\Code\heavensworld\public\svg\stone.png"
       inkscape:export-xdpi="96"
       inkscape:export-ydpi="96" />
    <path
       style="fill:#666666;stroke:none;stroke-width:0.264583px;stroke-linecap:butt;stroke-linejoin:miter;stroke-opacity:1"
       d="m 113.98107,89.70351 2.05742,2.788947 -1.23446,1.18873 1.76361,3.825383 c -2.4525,5.51157 -7.29148,2.87356 -8.06797,7.80172 0.83602,1.96982 0.0319,3.66629 2.7132,5.94366 6.86633,-3.84437 6.46514,-0.18638 9.55914,-1.81805 4.16047,-0.56905 4.27495,0.6826 5.16136,1.58687 l 4.78473,-1.93976 c 3.14136,-1.23719 6.92443,0.71924 6.0779,-9.9574 1.04245,0.52009 -1.88858,-2.06063 -2.71566,-1.29317 -3.727,0.70941 -2.90554,4.29484 -4.65541,2.71566 l -1.81044,-4.26746 c -4.53005,0.53903 -4.15507,-0.43071 -6.46584,0.38795 l 1.03453,-1.810441 c 0.0836,-1.1088 -2.0874,-2.539693 -4.52609,-4.008824 z"
       id="path37176"
       sodipodi:nodetypes="ccccccccccccccccc"
       inkscape:export-filename="C:\Code\heavensworld\public\svg\stone.png"
       inkscape:export-xdpi="96"
       inkscape:export-ydpi="96" />
    <path
       style="fill:#666666;stroke:none;stroke-width:0.264583px;stroke-linecap:butt;stroke-linejoin:miter;stroke-opacity:1"
       d="m 120.76069,153.82468 -1.75037,5.00814 c -7.7749,0.3069 -3.63248,2.55948 -5.44074,3.84052 l -3.52047,0.59436 c -0.68261,-1.16995 -0.8559,-2.12161 -0.68581,-2.92611 -0.28706,-0.6304 -1.23568,-1.13479 -4.06912,-1.28017 -0.89006,2.14724 -1.83112,4.35011 -1.41733,5.07497 0.0524,1.9465 0.87639,4.52431 -0.27432,5.48645 0.63153,1.2384 1.08212,2.94727 2.28602,2.69751 0.99557,-3.5463 2.40579,-3.63726 3.75089,-4.2708 1.10301,1.15257 2.05005,2.37447 2.06907,4.00882 0.17354,-1.43186 1.77117,-1.74297 2.58634,-4.00882 -1.59767,0.2752 -3.17817,0.4474 -4.65541,0 l 1.29317,-2.06908 c 1.33627,-0.7935 2.67255,0.64896 4.00882,1.29317 l 0.38795,-3.62087 c 0.38223,-1.00289 1.34986,-0.83494 2.45703,-0.38795 1.38115,0.67595 -0.22619,2.39138 -1.55181,4.00882 l 3.75019,-0.90521 3.68554,-4.07349 c 0.68139,-2.46958 -1.93538,-5.6459 -2.90964,-8.47026"
       id="path37952"
       sodipodi:nodetypes="ccccccccccccccccccccc"
       inkscape:export-filename="C:\Code\heavensworld\public\svg\stone.png"
       inkscape:export-xdpi="96"
       inkscape:export-ydpi="96" />
    <path
       style="fill:#666666;stroke:none;stroke-width:0.264583px;stroke-linecap:butt;stroke-linejoin:miter;stroke-opacity:1"
       d="m 113.9069,197.40449 c -1.83909,-2.27604 -4.07763,-5.69337 -5.13796,-5.74439 -1.59562,-1.25359 -6.27146,-0.82705 -10.42426,-0.68581 1.69672,-1.25818 2.32217,0.66276 4.52632,-4.52632 1.94921,0.89901 0.65223,-2.14976 6.17226,-2.74323 1.15254,-0.054 1.99966,0.35022 2.66525,1.02669 l -3.10361,4.26746 c 1.17922,0.55732 2.52106,1.00621 4.78473,0.84056 0.14186,1.01665 0.50307,3.60532 0.38795,2.78031 l 1.81044,2.39237 -1.68112,2.39236"
       id="path39226"
       sodipodi:nodetypes="ccccccccccc"
       inkscape:export-filename="C:\Code\heavensworld\public\svg\stone.png"
       inkscape:export-xdpi="96"
       inkscape:export-ydpi="96" />
    <path
       id="path26132-5"
       style="fill:#666666;fill-opacity:1;stroke:none;stroke-width:0.264583px;stroke-linecap:butt;stroke-linejoin:miter;stroke-opacity:1"
       d="m 125.76834,120.5346 c -1.4953,-0.0676 -1.34656,-1.16271 -5.30975,0.31213 -2.10349,4.04325 -1.1391,5.47123 -3.42675,7.50025 -1.40199,0.8843 3.04511,3.7697 3.62054,7.43578 -4.44092,0.80556 -3.12847,3.6409 -4.13777,5.81911 1.81802,4.41511 1.39742,4.8007 1.61596,6.33674 l 2.42879,1.18494 c 0.002,-0.0279 0.006,-0.0558 0.007,-0.0837 0.83254,0.10767 0.99882,1.28105 3.42666,-1.16376 -0.49903,-1.33627 0.0483,-2.67278 -1.55184,-4.00905 l 2.19883,-2.90939 c 1.41826,-2.98473 0.34454,-6.68138 0.51677,-10.02212 l -1.55133,-2.45722 c 1.22273,-3.25267 2.69817,-4.32447 3.23287,-6.46575 -0.32443,-0.75374 -0.68346,-1.1992 -1.07021,-1.47795 z"
       sodipodi:nodetypes="cccccccccccccccc" />
  </g>
</svg>
